<svg xmlns="http://www.w3.org/2000/svg" viewBox="0 0 512 512" width="512" height="512">
<rect x="8" y="8" width="496" height="496" rx="104" fill="#F4C400"/>
<g transform="scale(8)" fill="none" stroke="#15181A" stroke-width="2.6" stroke-linecap="round" stroke-linejoin="round">
<line x1="32" y1="13" x2="32" y2="50"/>
<path d="M32 19 C33 11 40 8 45 10 C50 13 51 20 49 27 C47 35 43 40 37 43 C35 44 33 45 32 45"/>
<path d="M36 16 C39 14 42 15 43 18"/>
<path d="M34 26 C37 24 41 24 45 27"/>
<path d="M35 29 C38 31 42 31 44 28"/>
<path d="M33 38 C38 38 43 37 49 36"/>
<path d="M33 40 C38 41 42 42 47 44"/>
</g>
<g transform="scale(8)"><circle cx="39.5" cy="27.2" r="2.4" fill="#15181A"/><path d="M29 36 L34 36 L31.5 39.5 Z" fill="#15181A"/></g>
</svg>
